# xmcd
#
# Track frame offsets: 
#        150
#        23988
#        60448
#        101913
#        140160
#        164313
#        190258
#
# Disc length: 3338 seconds
#
# Revision: 0
# Processed by: cddbd v1.5.2PL0 Copyright (c) Steve Scherf et al.
# Submitted via: ExactAudioCopy v0.99pb4
#
DISCID=600d0807
DTITLE=Various Artist - Cosmic Trance vol.2
DYEAR=1900
DGENRE=trance
TTITLE0=Morbid 2 - Generation E
TTITLE1=NIP Collective - Moments Of Decision
TTITLE2=The Noodle Project - Search Of Experience
TTITLE3=Philippe - Tula Azteca
TTITLE4=Morbid 2 - Gates Of Paradox
TTITLE5=Karmatix - Indian Flute
TTITLE6=Karmatix - Virtual
EXTD=
EXTT0=
EXTT1=
EXTT2=
EXTT3=
EXTT4=
EXTT5=
EXTT6=
PLAYORDER=
